<svg width="24" height="24" viewBox="0 0 24 24" fill="none" xmlns="http://www.w3.org/2000/svg">
<circle cx="12" cy="12" r="10" fill="#CC1439" stroke="#0D0D0D" stroke-width="4"/>
<g clip-path="url(#clip0_356_8092)">
<path d="M12.94 12L15.8066 9.14C15.9322 9.01446 16.0027 8.8442 16.0027 8.66666C16.0027 8.48913 15.9322 8.31887 15.8066 8.19333C15.6811 8.06779 15.5108 7.99727 15.3333 7.99727C15.1558 7.99727 14.9855 8.06779 14.86 8.19333L12 11.06L9.13996 8.19333C9.01442 8.06779 8.84416 7.99727 8.66663 7.99727C8.48909 7.99727 8.31883 8.06779 8.19329 8.19333C8.06776 8.31887 7.99723 8.48913 7.99723 8.66666C7.99723 8.8442 8.06776 9.01446 8.19329 9.14L11.06 12L8.19329 14.86C8.13081 14.922 8.08121 14.9957 8.04737 15.0769C8.01352 15.1582 7.99609 15.2453 7.99609 15.3333C7.99609 15.4213 8.01352 15.5085 8.04737 15.5897C8.08121 15.671 8.13081 15.7447 8.19329 15.8067C8.25527 15.8691 8.329 15.9187 8.41024 15.9526C8.49148 15.9864 8.57862 16.0039 8.66663 16.0039C8.75463 16.0039 8.84177 15.9864 8.92301 15.9526C9.00425 15.9187 9.07798 15.8691 9.13996 15.8067L12 12.94L14.86 15.8067C14.9219 15.8691 14.9957 15.9187 15.0769 15.9526C15.1581 15.9864 15.2453 16.0039 15.3333 16.0039C15.4213 16.0039 15.5084 15.9864 15.5897 15.9526C15.6709 15.9187 15.7446 15.8691 15.8066 15.8067C15.8691 15.7447 15.9187 15.671 15.9526 15.5897C15.9864 15.5085 16.0038 15.4213 16.0038 15.3333C16.0038 15.2453 15.9864 15.1582 15.9526 15.0769C15.9187 14.9957 15.8691 14.922 15.8066 14.86L12.94 12Z" fill="white"/>
</g>
<defs>
<clipPath id="clip0_356_8092">
<rect width="16" height="16" fill="white" transform="translate(4 4)"/>
</clipPath>
</defs>
</svg>
