<svg width="16" height="20" viewBox="0 0 16 20" fill="none" xmlns="http://www.w3.org/2000/svg">
    <path d="M8 1.00146e-08C5.89206 -0.00010539 3.86926 0.831759 2.37124 2.31479C0.873231 3.79782 0.0210794 5.81216 0 7.92C0 13.4 7.05 19.5 7.35 19.76C7.53113 19.9149 7.76165 20.0001 8 20.0001C8.23835 20.0001 8.46887 19.9149 8.65 19.76C9 19.5 16 13.4 16 7.92C15.9789 5.81216 15.1268 3.79782 13.6288 2.31479C12.1307 0.831759 10.1079 -0.00010539 8 1.00146e-08ZM8 17.65C6.33 16.06 2 11.65 2 7.92C2 6.3287 2.63214 4.80258 3.75736 3.67736C4.88258 2.55214 6.4087 1.92 8 1.92C9.5913 1.92 11.1174 2.55214 12.2426 3.67736C13.3679 4.80258 14 6.3287 14 7.92C14 11.62 9.67 16.06 8 17.65Z" fill="black"/>
</svg>




